<svg xmlns="http://www.w3.org/2000/svg" width="52.93" height="35.301" viewBox="0 0 52.93 35.301">
  <path id="Icon_ionic-ios-arrow-round-forward" data-name="Icon ionic-ios-arrow-round-forward" d="M41.629,11.928a2.4,2.4,0,0,0-.018,3.383l11.178,11.2H10.247a2.39,2.39,0,0,0,0,4.78H52.77l-11.178,11.2a2.42,2.42,0,0,0,.018,3.383,2.38,2.38,0,0,0,3.364-.018L60.124,30.588h0a2.684,2.684,0,0,0,.5-.754,2.281,2.281,0,0,0,.184-.919,2.4,2.4,0,0,0-.68-1.673L44.975,11.983A2.342,2.342,0,0,0,41.629,11.928Z" transform="translate(-7.875 -11.252)"/>
</svg>
